<svg width="22" height="25" viewBox="0 0 22 25" fill="none" xmlns="http://www.w3.org/2000/svg">
<path d="M20.8474 18.3737L20.8471 18.3733C20.7939 18.3165 20.7356 18.2557 20.6731 18.1906C20.2146 17.7127 19.5281 16.9972 18.9638 15.861C18.3194 14.5635 17.8532 12.775 17.8532 10.1562C17.8532 6.86635 15.5408 4.21472 12.3682 3.55941L11.5704 3.39463V2.58008V1.5625C11.5704 1.25674 11.3197 1 11 1C10.6803 1 10.4296 1.25674 10.4296 1.5625V2.58008V3.39463L9.63184 3.55941C6.45921 4.21472 4.14681 6.86635 4.14681 10.1562C4.14681 12.775 3.68064 14.5635 3.03622 15.861C2.47189 16.9972 1.78539 17.7127 1.32693 18.1906C1.26445 18.2557 1.20621 18.3164 1.15309 18.3731C1.03824 18.4959 0.999231 18.6234 1.00001 18.7433L20.8474 18.3737ZM20.8474 18.3737C20.9615 18.4954 21.0008 18.623 21 18.7433L21 18.7439C20.9981 19.0491 20.7598 19.3125 20.4236 19.3125H1.57637C1.2407 19.3125 1.00212 19.0496 1.00001 18.7433L20.8474 18.3737ZM12.8897 22.875C12.5299 23.5431 11.8206 24 11 24C10.1794 24 9.4701 23.5431 9.11033 22.875H12.8897Z" stroke="white" stroke-width="2"/>
</svg>
