<svg width="30" height="26" viewBox="0 0 30 26" fill="none" xmlns="http://www.w3.org/2000/svg">
<path d="M25.6902 19.8592L25.5516 19.3067L25.9562 18.9056C27.8827 16.9961 29 14.6127 29 12.0463C29 6.13777 22.9488 1 15 1C7.05124 1 1 6.13777 1 12.0463C1 17.9549 7.05124 23.0927 15 23.0927C17.1279 23.0927 19.137 22.7038 20.9445 22.0318L21.4707 21.8362L21.9117 22.1835C23.1105 23.1276 25.3564 24.5609 28.3248 24.8811C28.1349 24.6378 27.9249 24.3565 27.708 24.0442C26.9698 22.9815 26.0986 21.4868 25.6902 19.8592ZM29.1526 25.8594C29.1491 25.8558 29.1453 25.8518 29.141 25.8472C29.1447 25.8514 29.1486 25.8555 29.1525 25.8595L29.1526 25.8594Z" stroke="white" stroke-width="2"/>
</svg>
