<svg width="16" height="14" viewBox="0 0 16 14" fill="none" xmlns="http://www.w3.org/2000/svg">
<path d="M13.442 10.3688L13.3726 10.0925L13.575 9.89196C14.5849 8.89091 15.1716 7.64035 15.1716 6.29286C15.1716 3.1896 11.9957 0.5 7.83581 0.5C3.67594 0.5 0.49999 3.1896 0.49999 6.29286C0.49999 9.39612 3.67594 12.0857 7.83581 12.0857C8.95014 12.0857 10.0023 11.8821 10.9489 11.5301L11.212 11.4323L11.4325 11.606C12.0675 12.106 13.2642 12.8689 14.8468 13.0253C14.7395 12.8894 14.6183 12.7285 14.4927 12.5476C14.1078 11.9935 13.6544 11.2152 13.442 10.3688ZM15.245 13.4931C15.2434 13.4913 15.2415 13.4894 15.2394 13.4872C15.2412 13.4892 15.2431 13.4912 15.245 13.4931L15.245 13.4931Z" stroke="white"/>
</svg>
