<svg width="16" height="15" viewBox="0 0 16 15" fill="none" xmlns="http://www.w3.org/2000/svg">
<path d="M8.80293 1.73547L8.80271 1.73571L8.19973 2.3748L7.83605 2.76027L7.47236 2.3748L6.86939 1.73571L6.86882 1.73511C5.49361 0.272698 3.30155 0.069285 1.85136 1.34026C0.145966 2.83751 0.0527405 5.53987 1.58261 7.1669L8.80293 1.73547ZM8.80293 1.73547C10.1815 0.272438 12.3706 0.0694668 13.8206 1.34016L8.80293 1.73547ZM7.50518 13.457L1.58281 7.16712L13.8209 1.34042C15.5262 2.83773 15.6192 5.53989 14.0865 7.16679L14.0864 7.1669L8.16385 13.457C7.97867 13.6536 7.69049 13.6536 7.50527 13.4571C7.50524 13.4571 7.50521 13.4571 7.50518 13.457Z" stroke="white"/>
</svg>
