<svg width="30" height="27" viewBox="0 0 30 27" fill="none" xmlns="http://www.w3.org/2000/svg">
<path d="M16.8825 3.35157L16.8821 3.35205L15.7278 4.57546L15.0004 5.34639L14.2731 4.57546L13.1188 3.35205L13.1177 3.35085C10.4989 0.566034 6.32874 0.181912 3.57213 2.59799L16.8825 3.35157ZM16.8825 3.35157C19.5076 0.565566 23.6721 0.18229 26.4284 2.59766L16.8825 3.35157ZM26.9342 13.6901L26.9344 13.6899C29.8521 10.5929 29.6747 5.44816 26.4289 2.59817L26.9342 13.6901ZM26.9342 13.6901L15.5967 25.7312C15.5967 25.7312 15.5967 25.7312 15.5967 25.7313C15.5966 25.7313 15.5966 25.7314 15.5966 25.7314C15.259 26.0895 14.736 26.0895 14.3984 25.7314C14.3984 25.7314 14.3984 25.7313 14.3983 25.7313C14.3983 25.7312 14.3983 25.7312 14.3983 25.7312L3.06118 13.6905M26.9342 13.6901L3.06118 13.6905M3.06118 13.6905L3.06076 13.6901C0.148582 10.5929 0.326254 5.4481 3.57193 2.59817L3.06118 13.6905Z" stroke="white" stroke-width="2"/>
</svg>
